<svg xmlns="http://www.w3.org/2000/svg" viewBox="0 0 361.44 98.69"><defs><style>.cls-1{fill:#f35d71;}.cls-2,.cls-4,.cls-6,.cls-7{fill:none;}.cls-2{stroke:#f35d71;stroke-width:1.12px;}.cls-3{fill:#66d8dc;}.cls-4{stroke:#66d8dc;stroke-width:0.6px;}.cls-5{opacity:0.7;}.cls-6,.cls-7{stroke:#fff;stroke-width:2px;}.cls-7{stroke-dasharray:3.19 3.19;}</style></defs><g id="Layer_2" data-name="Layer 2"><g id="Layer_1-2" data-name="Layer 1"><path class="cls-1" d="M43,52.31,38.75,35.59a5.17,5.17,0,0,0-.48-1.31,20.66,20.66,0,0,0,4.95-14c0-10.53-6-17.14-13.56-17.14L4.82,3.25C2.14,3.25,0,5.45,0,9.37V53.21A4.81,4.81,0,0,0,4.82,58h8.81a4.65,4.65,0,0,0,3.65-1.65,3.79,3.79,0,0,0,1.17-3.23V41.58c0-.14.07-.42.34-.42a.38.38,0,0,1,.41.35l.56,2.82,1.78,8.4A6.85,6.85,0,0,0,27.6,58H38.75A4.46,4.46,0,0,0,43,52.31ZM24.71,22.1v1a4.12,4.12,0,0,1-4.06,4.07H19.34a.87.87,0,0,1-.89-.9V18.87a.87.87,0,0,1,.89-.9h1.31A4.13,4.13,0,0,1,24.71,22.1Z"/><path class="cls-1" d="M69.09,2.28c-11.29,0-22.43,9.09-22.43,20.44V38.41c0,11.77,11.14,20.93,22.43,20.93,11.56,0,22.44-9.16,22.44-20.93V22.72C91.53,11.37,80.65,2.28,69.09,2.28Zm4.62,35.45a4.63,4.63,0,0,1-4.62,4.4,4.51,4.51,0,0,1-4.54-4.4V24a4.53,4.53,0,0,1,4.54-4.54A4.65,4.65,0,0,1,73.71,24Z"/><path class="cls-1" d="M145.2,52.38,133.5,7.86a6.68,6.68,0,0,0-1.38-3.17,4.63,4.63,0,0,0-3.3-1.31h-18a4.34,4.34,0,0,0-2.68.9,4.19,4.19,0,0,0-1.72,2.54L94,52.31a4.65,4.65,0,0,0,2.55,5.44,3.73,3.73,0,0,0,1.79.35h9.36c2.54,0,3.58-1.59,4.61-4.2l2-5.37h10.53l2.07,5.37c1,2.61,2.06,4.26,4.6,4.26h9.36a4.06,4.06,0,0,0,2.07-.55A4.68,4.68,0,0,0,145.2,52.38ZM122.83,32.63h-6.39a.91.91,0,0,1-.9-1.31l1.79-4.68,1.38-3.58a.93.93,0,0,1,1.78,0l1.45,3.58,1.79,4.68A1,1,0,0,1,122.83,32.63Z"/><path class="cls-1" d="M172.24,3.17H153.73a5,5,0,0,0-5,5v44.8a5.08,5.08,0,0,0,5,5h18.51a19,19,0,0,0,19.07-19.13V22.24A19,19,0,0,0,172.24,3.17Zm2.27,29.05a4.75,4.75,0,0,1-4.95,4.89h-3.31c-.48,0-1-.35-1-1.18V25.2c0-.9.48-1.31,1-1.31h3.31a4.82,4.82,0,0,1,4.95,5Z"/><path class="cls-1" d="M239.13,3.11h-39a4.83,4.83,0,0,0-4.82,4.81v9.43a4.88,4.88,0,0,0,4.82,4.82h9.49a.52.52,0,0,1,.49.48V53.48A4.84,4.84,0,0,0,215,58.3h9.36a4.87,4.87,0,0,0,4.82-4.82V22.65a.59.59,0,0,1,.55-.48h9.43A4.87,4.87,0,0,0,244,17.35V7.92A4.83,4.83,0,0,0,239.13,3.11Z"/><path class="cls-1" d="M291.29,52.31,287,35.59a4.8,4.8,0,0,0-.49-1.31,20.61,20.61,0,0,0,4.95-14c0-10.53-6.05-17.14-13.55-17.14l-24.85.08c-2.68,0-4.81,2.2-4.81,6.12V53.21A4.8,4.8,0,0,0,253.09,58h8.82a4.63,4.63,0,0,0,3.64-1.65,3.79,3.79,0,0,0,1.17-3.23V41.58c0-.14.07-.42.35-.42a.39.39,0,0,1,.41.35l.55,2.82,1.79,8.4A6.85,6.85,0,0,0,275.87,58H287A4.45,4.45,0,0,0,291.29,52.31ZM273,22.1v1a4.12,4.12,0,0,1-4.06,4.07h-1.31a.88.88,0,0,1-.89-.9V18.87a.88.88,0,0,1,.89-.9h1.31A4.13,4.13,0,0,1,273,22.1Z"/><path class="cls-1" d="M300.92,58.23h8.54a4.93,4.93,0,0,0,5-4.95V8.06a4.76,4.76,0,0,0-5-5h-8.54a4.84,4.84,0,0,0-4.89,5V53.28A5,5,0,0,0,300.92,58.23Z"/><path class="cls-1" d="M357.35,11.57a11.74,11.74,0,0,0-11.22-8.32H324.32A5.43,5.43,0,0,0,319,8.68V52.59A5.39,5.39,0,0,0,324.32,58h7.15a5.39,5.39,0,0,0,5.37-5.44V40h9.57a9.77,9.77,0,0,0,7.5-3.45c2.27-2.75,4.61-7.5,4.61-15.41A34.66,34.66,0,0,0,357.35,11.57ZM343.1,21v1A4,4,0,0,1,339,26.1h-1.31a.82.82,0,0,1-.89-.83V17.84a.93.93,0,0,1,.89-1H339A4.13,4.13,0,0,1,343.1,21Z"/><path class="cls-2" d="M45.39,50.6,41.11,33.88a4,4,0,0,0-.48-1.31,20.67,20.67,0,0,0,4.95-14c0-10.52-6-17.14-13.55-17.14L7.19,1.52c-2.69,0-4.82,2.2-4.82,6.13V51.49a4.81,4.81,0,0,0,4.82,4.75H16a4.64,4.64,0,0,0,3.65-1.66,3.79,3.79,0,0,0,1.18-3.23V39.86c0-.13.07-.42.34-.42a.41.41,0,0,1,.41.35l.54,2.83L23.91,51A6.84,6.84,0,0,0,30,56.24H41.11A4.47,4.47,0,0,0,45.39,50.6ZM27.07,20.39v1A4.11,4.11,0,0,1,23,25.41H21.71a.87.87,0,0,1-.89-.91V17.14a.87.87,0,0,1,.89-.89H23A4.13,4.13,0,0,1,27.07,20.39ZM71.46.56C60.17.56,49,9.65,49,21V36.68c0,11.79,11.14,20.94,22.43,20.94,11.56,0,22.43-9.15,22.43-20.94V21C93.89,9.65,83,.56,71.46.56ZM76.06,36a4.61,4.61,0,0,1-4.6,4.41A4.5,4.5,0,0,1,66.92,36V22.24a4.54,4.54,0,0,1,4.54-4.54,4.64,4.64,0,0,1,4.6,4.54Zm71.5,14.66L135.87,6.14A6.78,6.78,0,0,0,134.49,3a4.61,4.61,0,0,0-3.31-1.3h-18a4.32,4.32,0,0,0-2.68.89,4.28,4.28,0,0,0-1.73,2.54L96.37,50.6A4.63,4.63,0,0,0,98.91,56a3.64,3.64,0,0,0,1.79.36h9.36c2.54,0,3.58-1.58,4.61-4.21l2-5.36H127.2l2.07,5.36c1,2.63,2.06,4.27,4.6,4.27h9.36a4,4,0,0,0,2.07-.55A4.65,4.65,0,0,0,147.56,50.66ZM125.2,30.9h-6.4a.89.89,0,0,1-.89-1.29l1.78-4.69,1.38-3.57a.93.93,0,0,1,1.79,0l1.45,3.57,1.78,4.69A1,1,0,0,1,125.2,30.9ZM174.61,1.45H156.09a5,5,0,0,0-5,5V51.22a5.08,5.08,0,0,0,5,5h18.52a19,19,0,0,0,19.06-19.13V20.52A19,19,0,0,0,174.61,1.45Zm2.27,29.05a4.76,4.76,0,0,1-5,4.89h-3.29c-.49,0-1-.35-1-1.17V23.48c0-.89.48-1.31,1-1.31h3.29a4.83,4.83,0,0,1,5,5ZM241.49,1.38h-39a4.84,4.84,0,0,0-4.82,4.83v9.42a4.88,4.88,0,0,0,4.82,4.83H212a.52.52,0,0,1,.49.46V51.76a4.84,4.84,0,0,0,4.89,4.82h9.36a4.87,4.87,0,0,0,4.8-4.82V20.92a.61.61,0,0,1,.56-.46h9.42a4.88,4.88,0,0,0,4.82-4.83V6.21A4.84,4.84,0,0,0,241.49,1.38ZM293.66,50.6l-4.27-16.72a4.46,4.46,0,0,0-.48-1.31,20.67,20.67,0,0,0,4.95-14c0-10.52-6.05-17.14-13.56-17.14l-24.83.07c-2.69,0-4.82,2.2-4.82,6.13V51.49a4.81,4.81,0,0,0,4.82,4.75h8.8a4.64,4.64,0,0,0,3.65-1.66,3.81,3.81,0,0,0,1.17-3.23V39.86c0-.13.07-.42.34-.42a.41.41,0,0,1,.42.35l.54,2.83,1.8,8.38a6.83,6.83,0,0,0,6,5.24h11.16A4.46,4.46,0,0,0,293.66,50.6ZM275.34,20.39v1a4.11,4.11,0,0,1-4,4.06H270a.87.87,0,0,1-.89-.91V17.14a.87.87,0,0,1,.89-.89h1.32A4.13,4.13,0,0,1,275.34,20.39Zm28,36.12h8.53a4.94,4.94,0,0,0,5-5V6.34a4.78,4.78,0,0,0-5-5h-8.53a4.84,4.84,0,0,0-4.89,5V51.55A5,5,0,0,0,303.29,56.51ZM359.72,9.85A11.74,11.74,0,0,0,348.5,1.52H326.69A5.45,5.45,0,0,0,321.31,7V50.87a5.41,5.41,0,0,0,5.38,5.44h7.16a5.4,5.4,0,0,0,5.36-5.44V38.28h9.56a9.82,9.82,0,0,0,7.51-3.44c2.27-2.76,4.6-7.52,4.6-15.43A34.69,34.69,0,0,0,359.72,9.85Zm-14.25,9.43v1a4,4,0,0,1-4.06,4.12H340.1a.81.81,0,0,1-.89-.83V16.12a.93.93,0,0,1,.89-1h1.31A4.12,4.12,0,0,1,345.47,19.28Z"/><path class="cls-3" d="M302.52,68.81h-4.64a2.7,2.7,0,0,0-2.69,2.64v8.66l-4.3-9.57a2.72,2.72,0,0,0-2.54-1.73h-4.63A2.67,2.67,0,0,0,281,71.45V96a2.67,2.67,0,0,0,2.69,2.65h4.63A2.65,2.65,0,0,0,291,96V87.76l4.31,9.13a2.79,2.79,0,0,0,2.53,1.8h4.64A2.65,2.65,0,0,0,305.21,96V71.45A2.65,2.65,0,0,0,302.52,68.81Z"/><path class="cls-3" d="M325.41,68.85H310.32a2.71,2.71,0,0,0-2.69,2.72V95.49a2.71,2.71,0,0,0,2.69,2.72h4.6a2.71,2.71,0,0,0,2.72-2.72V88.57c0-.19.11-.26.26-.3h5.41a1.76,1.76,0,0,0,1.77-1.73v-4a1.77,1.77,0,0,0-1.77-1.77H317.9a.25.25,0,0,1-.26-.26V77.08a.28.28,0,0,1,.26-.25h7.51a1.92,1.92,0,0,0,1.91-1.92V70.79A1.9,1.9,0,0,0,325.41,68.85Z"/><path class="cls-3" d="M353.19,68.77H332.33a2.58,2.58,0,0,0-2.58,2.58v5A2.6,2.6,0,0,0,332.33,79h5.07a.28.28,0,0,1,.26.26V95.71a2.58,2.58,0,0,0,2.61,2.57h5a2.6,2.6,0,0,0,2.57-2.57V79.22a.32.32,0,0,1,.3-.26h5a2.6,2.6,0,0,0,2.58-2.57v-5A2.59,2.59,0,0,0,353.19,68.77Z"/><path class="cls-4" d="M303.79,67.88h-4.64a2.7,2.7,0,0,0-2.69,2.65v8.65l-4.3-9.56a2.75,2.75,0,0,0-2.55-1.74H285a2.67,2.67,0,0,0-2.69,2.65V95.12A2.67,2.67,0,0,0,285,97.77h4.63a2.65,2.65,0,0,0,2.69-2.65V86.84L296.61,96a2.8,2.8,0,0,0,2.54,1.8h4.64a2.65,2.65,0,0,0,2.68-2.65V70.53A2.65,2.65,0,0,0,303.79,67.88Zm22.89,0h-15.1a2.71,2.71,0,0,0-2.68,2.73V94.57a2.71,2.71,0,0,0,2.68,2.72h4.6a2.72,2.72,0,0,0,2.73-2.72V87.65a.27.27,0,0,1,.26-.29h5.4a1.76,1.76,0,0,0,1.77-1.73V81.57a1.76,1.76,0,0,0-1.77-1.76h-5.4a.25.25,0,0,1-.26-.26V76.17a.28.28,0,0,1,.26-.26h7.51A1.92,1.92,0,0,0,328.59,74V69.87A1.91,1.91,0,0,0,326.68,67.92Zm27.77-.07H333.59A2.59,2.59,0,0,0,331,70.43v5A2.6,2.6,0,0,0,333.59,78h5.08a.28.28,0,0,1,.26.26V94.78a2.59,2.59,0,0,0,2.61,2.58h5a2.6,2.6,0,0,0,2.56-2.58V78.3a.33.33,0,0,1,.3-.26h5A2.6,2.6,0,0,0,357,75.47v-5A2.59,2.59,0,0,0,354.45,67.85Z"/><g class="cls-5"><line class="cls-6" x1="219.62" y1="5.8" x2="219.62" y2="7.3"/><line class="cls-7" x1="219.62" y1="10.49" x2="219.62" y2="53.49"/><line class="cls-6" x1="219.62" y1="55.08" x2="219.62" y2="56.58"/></g></g></g></svg>